<?xml version="1.0" standalone="no"?>
<!DOCTYPE svg PUBLIC "-//W3C//DTD SVG 20010904//EN"
 "http://www.w3.org/TR/2001/REC-SVG-20010904/DTD/svg10.dtd">
<svg version="1.0" xmlns="http://www.w3.org/2000/svg"
 width="966.000000pt" height="966.000000pt" viewBox="0 0 966.000000 966.000000"
 preserveAspectRatio="xMidYMid meet">
<metadata>
Created by potrace 1.14, written by Peter Selinger 2001-2017
</metadata>
<g transform="translate(0.000000,966.000000) scale(0.100000,-0.100000)"
fill="#000000" stroke="none">
<path d="M2413 9653 c1329 -2 3505 -2 4835 0 1329 1 241 2 -2418 2 -2659 0
-3747 -1 -2417 -2z"/>
<path d="M3117 9304 c-3 -5 -8 -39 -12 -76 l-7 -68 100 0 100 0 4 68 c3 37 5
68 4 69 -4 7 -185 13 -189 7z"/>
<path d="M2636 9129 c-3 -17 -6 -49 -6 -70 l0 -39 94 0 93 0 7 38 c3 20 6 52
6 70 l0 32 -94 0 -93 0 -7 -31z"/>
<path d="M3507 9094 c-2 -5 -7 -54 -8 -109 l-4 -100 140 0 140 0 6 95 c3 52 3
98 0 102 -9 10 -267 22 -274 12z"/>
<path d="M2986 8918 c-3 -13 -8 -60 -11 -105 l-6 -83 139 0 c163 0 152 -9 152
128 l0 82 -135 0 c-132 0 -135 -1 -139 -22z"/>
<path d="M4092 8759 c-104 -7 -222 -22 -264 -35 -16 -5 -18 -23 -19 -182 -1
-97 -4 -204 -8 -237 l-6 -60 -90 0 c-49 0 -202 1 -339 3 l-249 2 5 100 c3 55
2 100 -1 100 -18 0 -179 -141 -245 -213 -66 -73 -162 -192 -191 -238 -5 -9
-22 -35 -37 -57 -79 -119 -199 -378 -211 -459 -4 -24 -14 -57 -21 -75 -24 -56
-38 -139 -40 -238 l-1 -95 200 -8 c233 -10 275 -4 275 41 0 33 -44 104 -90
147 -17 17 -46 50 -63 75 -29 40 -32 52 -31 115 1 98 16 135 87 207 84 86 164
124 290 139 193 24 374 -26 478 -132 69 -70 93 -131 87 -223 -4 -66 -16 -91
-104 -215 -56 -79 -56 -108 -2 -134 33 -16 79 -19 438 -24 l400 -6 0 54 c1 30
2 81 4 114 3 33 5 170 6 305 3 260 12 323 56 371 74 82 219 67 393 -40 74 -45
76 -46 161 -46 77 0 90 3 130 29 69 43 120 127 120 196 0 49 -31 130 -63 167
-48 54 -117 83 -202 83 -63 0 -79 -5 -178 -52 -122 -57 -181 -68 -254 -48 -64
19 -108 60 -129 123 -15 44 -16 77 -11 244 5 151 4 195 -6 197 -29 10 -171 12
-275 5z"/>
<path d="M4510 8544 c0 -121 4 -213 10 -224 26 -48 72 -44 193 16 130 65 221
77 343 45 118 -31 191 -84 247 -181 29 -52 49 -171 38 -222 -23 -101 -88 -180
-196 -239 -54 -30 -70 -33 -162 -37 -122 -5 -175 10 -272 75 -36 24 -89 51
-118 60 -53 17 -54 17 -76 -5 -22 -22 -22 -29 -29 -385 -4 -199 -6 -368 -3
-374 3 -10 62 -13 242 -14 131 0 355 -4 498 -8 254 -7 261 -8 315 -34 105 -51
129 -136 68 -249 -17 -32 -41 -67 -52 -76 -120 -98 -136 -209 -44 -308 97
-106 258 -148 418 -111 181 43 245 205 136 342 -98 122 -129 201 -106 270 21
64 99 104 212 110 l61 4 25 73 c47 142 32 230 -79 466 -27 56 -49 107 -49 113
0 6 -7 23 -15 37 -8 15 -24 50 -35 77 -30 72 -108 223 -133 259 -275 391 -622
588 -1232 702 -71 13 -147 24 -167 24 l-38 0 0 -206z"/>
<path d="M3254 8706 c-2 -6 -5 -76 -6 -156 l-3 -145 194 -3 c149 -2 196 1 203
10 4 7 8 77 8 156 l0 142 -77 1 c-43 1 -131 3 -196 4 -80 2 -120 -1 -123 -9z"/>
<path d="M2576 8593 c-3 -15 -6 -50 -8 -78 l-3 -50 97 -3 c110 -3 105 -7 109
93 l3 60 -96 3 -96 3 -6 -28z"/>
<path d="M3015 7674 c-65 -16 -149 -67 -182 -112 -51 -69 -38 -150 35 -226 58
-60 110 -136 122 -175 11 -40 -6 -120 -31 -147 -12 -12 -44 -33 -72 -45 -45
-21 -68 -24 -177 -24 -69 0 -171 4 -227 8 l-103 9 0 -37 c0 -46 42 -231 70
-310 12 -33 29 -80 38 -105 16 -45 245 -504 261 -524 18 -23 78 -194 90 -257
9 -48 10 -88 2 -155 -20 -169 -57 -391 -86 -519 -8 -33 -26 -116 -39 -185 -31
-154 -76 -351 -81 -361 -3 -3 -17 -11 -32 -17 -92 -35 -365 -136 -403 -149
-25 -8 -49 -18 -53 -22 -4 -4 491 -10 1100 -14 650 -3 1112 -2 1117 3 13 13
-10 1082 -24 1143 -25 102 -93 97 -255 -18 -80 -57 -212 -88 -320 -75 -78 9
-98 16 -159 53 -114 67 -179 169 -198 309 -10 76 -9 95 7 155 21 81 55 144
104 196 162 172 379 201 576 77 124 -78 201 -96 224 -52 5 9 10 203 12 431 l4
413 -370 4 c-434 5 -472 7 -533 34 -142 63 -154 165 -37 318 64 83 75 108 75
163 0 70 -52 144 -129 183 -40 20 -164 46 -218 45 -26 0 -75 -7 -108 -15z"/>
<path d="M4487 6748 c-4 -112 -7 -299 -7 -417 0 -138 -4 -228 -12 -254 -28
-93 -136 -149 -245 -127 -69 15 -129 40 -196 83 -101 64 -118 70 -190 65 -127
-10 -235 -99 -269 -220 -41 -146 20 -302 139 -358 86 -40 232 -25 298 30 76
64 189 110 270 110 67 0 101 -12 143 -53 64 -60 74 -95 83 -267 16 -306 29
-718 29 -873 0 -117 3 -159 13 -162 6 -3 311 -4 677 -3 l665 3 -75 29 c-108
41 -255 97 -412 157 -76 29 -138 57 -138 63 1 20 65 94 115 134 122 95 168
109 425 123 220 12 277 22 367 65 124 59 158 124 162 307 2 133 12 171 57 215
39 38 43 72 19 165 -20 79 -19 98 10 138 70 98 78 117 76 192 -3 137 50 223
175 283 97 46 129 89 122 164 -8 80 -33 109 -373 432 l-101 96 -65 7 c-40 4
-81 2 -107 -4 -39 -11 -42 -14 -42 -46 0 -26 14 -52 60 -113 100 -133 126
-221 96 -324 -42 -145 -184 -239 -383 -255 -83 -6 -228 11 -239 28 -3 5 -13 9
-22 9 -24 0 -110 47 -160 87 -100 81 -160 205 -146 301 10 68 39 119 106 185
33 32 66 74 74 92 37 90 30 92 -426 99 -206 4 -418 9 -471 12 l-96 5 -6 -203z
m1673 -1645 c0 -8 -17 -32 -37 -53 -32 -31 -52 -40 -130 -59 -68 -17 -99 -21
-120 -14 -26 9 -22 11 42 23 94 17 189 62 211 99 18 30 34 32 34 4z"/>
<path d="M1575 3428 l-35 -33 -45 -391 c-26 -230 -51 -405 -60 -425 -35 -81
-133 -156 -215 -166 -93 -11 -137 3 -194 60 -37 37 -56 67 -66 102 -12 40 -22
53 -51 68 -35 18 -37 18 -74 0 -86 -41 -101 -118 -44 -230 31 -62 136 -173
163 -173 6 0 25 -8 41 -17 46 -26 252 -25 320 1 73 28 144 78 208 145 49 51
68 82 118 196 5 11 27 189 49 395 22 206 42 392 45 413 12 84 -91 119 -160 55z"/>
<path d="M2195 3101 c-89 -26 -135 -53 -207 -123 -44 -43 -74 -84 -95 -128
-59 -125 -71 -191 -54 -300 23 -145 103 -261 219 -316 107 -51 281 -43 379 18
l33 20 34 -36 c26 -28 41 -36 67 -36 39 0 73 20 91 53 8 14 22 169 38 406 24
368 25 385 8 412 -36 59 -93 62 -146 8 l-30 -31 -38 20 c-58 29 -146 52 -196
51 -23 -1 -70 -9 -103 -18z m216 -213 c104 -80 123 -239 44 -373 -32 -56 -90
-94 -161 -105 -171 -28 -278 78 -260 257 8 77 24 116 71 171 55 63 95 81 187
82 71 0 79 -2 119 -32z"/>
<path d="M4346 3103 c-100 -22 -179 -77 -244 -167 -52 -71 -70 -115 -83 -199
-36 -233 91 -456 295 -519 100 -31 220 -23 305 21 l62 31 33 -35 c42 -44 90
-48 133 -11 l28 24 -4 384 c-3 400 -7 432 -49 464 -9 7 -34 14 -55 14 -31 0
-45 -7 -68 -31 l-29 -31 -56 26 c-72 34 -189 47 -268 29z m187 -194 c47 -24
107 -94 127 -147 42 -111 16 -229 -68 -304 -47 -42 -84 -52 -182 -46 -59 3
-74 8 -107 34 -44 36 -88 117 -96 177 -3 23 1 72 9 108 12 52 24 75 57 112 23
26 56 54 72 62 36 18 156 20 188 4z"/>
<path d="M5235 3083 l-27 -28 6 -145 c4 -80 13 -338 21 -573 17 -472 16 -466
82 -493 48 -20 114 10 133 61 4 11 4 94 -1 185 -5 90 -6 166 -4 168 2 3 35 -8
72 -24 60 -26 79 -29 173 -29 98 0 109 2 171 32 219 108 300 373 186 613 -39
83 -140 183 -227 224 -61 29 -72 31 -180 31 -104 0 -120 -3 -174 -27 l-58 -28
-28 30 c-39 42 -105 43 -145 3z m499 -177 c50 -21 108 -78 135 -131 28 -57 38
-153 22 -213 -13 -48 -69 -115 -115 -139 -46 -24 -160 -22 -211 5 -183 94
-193 375 -17 467 55 28 134 33 186 11z"/>
<path d="M6595 3101 c-75 -19 -171 -93 -219 -170 -60 -95 -79 -265 -42 -374
40 -120 132 -240 223 -294 136 -79 305 -82 432 -7 29 17 29 17 64 -19 27 -29
42 -37 68 -37 45 1 78 28 85 70 3 19 -8 157 -26 305 -17 149 -36 315 -42 370
-10 92 -14 102 -44 133 -48 49 -112 44 -140 -10 -15 -28 -16 -29 -39 -14 -71
47 -227 69 -320 47z m223 -200 c47 -24 119 -100 138 -147 25 -59 29 -154 10
-210 -33 -97 -86 -134 -195 -134 -90 0 -143 22 -188 78 -47 59 -65 101 -71
169 -9 112 32 203 110 245 46 24 148 24 196 -1z"/>
<path d="M7500 3088 c-11 -13 -23 -32 -26 -43 -3 -11 9 -126 25 -255 17 -129
38 -291 46 -360 18 -145 27 -172 67 -205 62 -52 148 -16 148 62 0 21 -14 137
-30 258 -30 219 -31 254 -3 308 48 94 210 89 291 -9 32 -39 38 -65 77 -324 39
-257 35 -242 75 -282 58 -58 126 -50 150 19 8 23 2 82 -30 277 -23 137 -45
256 -49 265 -55 115 -72 143 -121 190 -77 75 -161 113 -265 119 -59 3 -92 0
-125 -13 -76 -28 -78 -28 -106 -6 -37 29 -96 28 -124 -1z"/>
<path d="M3049 3071 c-39 -39 -38 -77 5 -193 31 -81 109 -297 196 -538 34 -95
46 -117 70 -130 31 -17 84 -12 108 10 20 19 71 119 112 220 10 25 36 83 58
130 21 47 42 95 46 107 4 12 23 54 42 95 68 139 103 232 97 261 -7 37 -48 67
-91 67 -27 0 -42 -8 -68 -36 -19 -19 -34 -40 -34 -46 0 -11 -12 -39 -76 -176
-24 -51 -44 -94 -44 -97 0 -14 -81 -175 -89 -175 -5 0 -16 24 -26 53 -9 28
-21 57 -25 62 -4 6 -13 26 -18 45 -6 19 -27 78 -47 130 -20 52 -43 116 -51
142 -31 98 -104 129 -165 69z"/>
<path d="M4152 1180 c-86 -40 -117 -63 -160 -123 -72 -98 -98 -189 -88 -301
12 -138 113 -284 236 -340 54 -25 201 -28 265 -7 51 18 119 66 135 96 28 52
-24 119 -72 94 -13 -7 -25 -15 -28 -19 -9 -12 -63 -36 -112 -50 -144 -38 -308
106 -308 270 0 76 44 171 100 218 31 27 122 62 160 62 45 0 142 -34 160 -55 7
-8 28 -15 46 -15 27 0 36 6 49 31 15 28 15 32 -2 61 -33 56 -155 108 -253 108
-50 -1 -80 -8 -128 -30z"/>
<path d="M23 1188 c-19 -9 -23 -19 -23 -62 l0 -52 78 1 c71 0 82 -3 115 -28
68 -51 110 -52 137 -1 11 19 10 27 -4 49 -19 29 -103 85 -128 85 -9 0 -20 5
-23 10 -8 13 -124 12 -152 -2z"/>
<path d="M6258 1189 c-24 -13 -23 -55 6 -446 15 -208 27 -317 36 -328 19 -23
67 -19 84 8 12 19 11 66 -14 382 -27 342 -29 360 -50 377 -25 20 -37 22 -62 7z"/>
<path d="M1195 1164 c-14 -15 -25 -31 -25 -36 0 -5 -18 -157 -40 -339 -22
-182 -40 -339 -40 -348 0 -50 64 -74 99 -37 18 19 26 69 63 383 41 354 42 362
24 382 -26 28 -52 26 -81 -5z"/>
<path d="M2052 1174 c-17 -12 -22 -25 -22 -63 0 -52 12 -71 46 -71 52 0 85 98
46 133 -23 21 -41 21 -70 1z"/>
<path d="M4727 1168 c-11 -19 -12 -92 -8 -380 6 -349 7 -358 28 -379 28 -29
67 -19 88 21 13 25 14 55 9 177 -6 144 -6 149 17 182 29 42 68 54 117 38 67
-22 78 -53 86 -239 8 -176 13 -191 62 -191 52 1 57 20 49 212 -8 199 -14 221
-84 291 -56 56 -89 66 -187 57 l-64 -6 -1 52 c-1 139 -19 187 -69 187 -20 0
-34 -7 -43 -22z"/>
<path d="M5990 1175 c-19 -23 26 -733 48 -757 19 -22 65 -23 83 -2 16 20 16
48 -5 384 -18 299 -29 375 -52 384 -28 11 -61 6 -74 -9z"/>
<path d="M6609 950 c-119 -63 -169 -238 -106 -370 28 -58 65 -102 121 -145 74
-57 249 -39 302 30 29 38 30 56 6 78 -24 22 -49 21 -97 -3 -51 -26 -98 -25
-153 1 -42 21 -87 74 -76 91 3 4 81 8 174 8 l170 0 16 25 c14 22 15 31 4 73
-7 26 -21 63 -31 82 -24 47 -95 115 -143 134 -53 22 -142 20 -187 -4z m182
-116 c28 -14 79 -69 79 -85 0 -5 -52 -10 -115 -11 -63 -1 -125 -2 -137 -2 -56
-2 2 108 61 117 34 5 80 -2 112 -19z"/>
<path d="M7139 954 c-8 -10 -13 -35 -12 -58 4 -96 46 -443 56 -466 15 -30 57
-38 81 -15 20 20 20 51 0 220 -17 152 -12 179 40 204 36 17 92 3 124 -32 20
-21 26 -49 43 -193 18 -148 23 -172 44 -193 19 -20 27 -22 51 -14 19 6 30 18
32 32 7 45 -40 355 -59 392 -23 45 -88 108 -130 126 -39 16 -123 17 -149 1
-15 -10 -26 -10 -53 0 -44 16 -52 15 -68 -4z"/>
<path d="M7864 955 c-42 -19 -102 -89 -114 -134 -38 -137 23 -295 145 -379 49
-33 52 -34 130 -29 44 3 93 8 108 12 l29 8 -22 -42 c-24 -48 -76 -77 -119 -66
-75 19 -89 18 -106 -9 -38 -57 34 -125 131 -126 72 0 133 27 168 77 66 94 68
125 24 431 -34 241 -45 272 -95 272 -14 0 -32 -8 -39 -17 -11 -16 -16 -17 -46
-4 -46 20 -156 23 -194 6z m187 -136 c63 -44 94 -150 63 -215 -65 -136 -244
-69 -261 97 -4 46 -1 59 19 89 13 19 35 41 48 48 32 16 94 8 131 -19z"/>
<path d="M8525 947 c-91 -51 -126 -166 -91 -300 18 -70 52 -123 111 -175 58
-51 108 -66 197 -60 75 6 125 30 148 71 13 24 13 30 0 55 -20 35 -61 41 -96
13 -56 -44 -143 -34 -201 24 -61 61 -53 65 125 65 191 0 208 6 197 76 -13 87
-106 203 -190 238 -56 24 -151 20 -200 -7z m188 -103 c45 -23 87 -64 87 -86 0
-16 -11 -18 -135 -18 -130 0 -135 1 -135 21 0 81 99 125 183 83z"/>
<path d="M9100 947 c-19 -12 -42 -37 -53 -54 -16 -29 -17 -39 -7 -87 9 -43 19
-62 50 -90 50 -45 63 -51 156 -76 43 -12 84 -26 91 -32 21 -17 15 -46 -12 -64
-34 -22 -98 -12 -155 26 -53 35 -61 36 -83 12 -37 -41 -10 -91 71 -135 131
-71 286 -33 306 75 18 98 -50 191 -168 227 -37 11 -76 21 -85 21 -27 1 -65 36
-58 54 13 34 54 38 123 10 73 -29 103 -28 115 2 12 33 -22 78 -82 108 -71 35
-160 37 -209 3z"/>
<path d="M2032 943 c-19 -16 -23 -43 -43 -269 -12 -138 -19 -259 -16 -268 9
-22 69 -21 90 2 12 13 21 76 37 265 21 236 21 250 4 268 -21 24 -46 24 -72 2z"/>
<path d="M2310 928 c-11 -18 -20 -44 -20 -58 0 -14 -7 -115 -16 -225 -18 -228
-14 -255 35 -255 31 0 71 32 71 58 0 85 25 312 37 335 32 62 125 69 168 13
l24 -32 -11 -163 c-12 -187 -7 -211 42 -211 49 0 57 25 69 222 10 164 10 180
-8 220 -46 106 -152 154 -258 116 -27 -10 -38 -10 -53 0 -33 21 -59 14 -80
-20z"/>
<path d="M3039 932 c-104 -54 -172 -203 -149 -325 14 -71 36 -111 90 -161 67
-62 133 -70 258 -31 35 12 27 -11 -24 -61 -45 -45 -46 -46 -97 -40 -112 13
-109 14 -130 -22 -25 -43 -12 -77 37 -97 88 -37 175 -22 247 43 100 90 115
144 124 465 6 181 5 211 -9 232 -19 28 -57 33 -76 10 -16 -19 -37 -19 -74 0
-47 25 -135 19 -197 -13z m179 -119 c32 -20 52 -72 52 -133 0 -94 -57 -160
-139 -160 -56 0 -84 18 -111 70 -43 84 -7 199 75 236 34 16 88 10 123 -13z"/>
<path d="M5435 942 c-40 -25 -94 -87 -113 -131 -10 -23 -16 -66 -16 -121 0
-73 4 -92 26 -135 33 -63 104 -132 148 -145 51 -15 123 -12 176 6 42 14 47 14
64 -1 27 -24 72 -16 80 15 4 14 3 86 -1 160 -4 74 -9 181 -11 237 -3 64 -9
107 -17 117 -17 20 -59 21 -81 1 -15 -14 -21 -14 -53 0 -52 22 -164 20 -202
-3z m175 -117 c83 -43 98 -233 22 -277 -73 -43 -144 -26 -189 45 -22 35 -25
49 -21 106 4 69 23 110 63 130 30 15 92 13 125 -4z"/>
<path d="M620 932 c-90 -43 -173 -166 -185 -273 -13 -105 38 -214 119 -256 39
-20 154 -22 193 -3 50 25 133 113 160 170 64 134 26 306 -80 362 -44 23 -160
24 -207 0z m145 -117 c45 -18 58 -52 52 -137 -3 -53 -10 -75 -31 -103 -65 -85
-178 -88 -222 -4 -30 59 -3 184 50 228 36 30 101 37 151 16z"/>
<path d="M1399 938 c-42 -35 -41 -36 15 -244 30 -109 59 -218 66 -242 6 -25
20 -48 35 -58 23 -15 27 -15 48 -1 24 16 32 31 177 332 77 159 81 172 68 195
-20 37 -61 38 -85 3 -29 -41 -143 -272 -143 -289 0 -7 -6 -14 -13 -14 -7 0
-20 28 -30 63 -9 34 -28 102 -41 152 -30 106 -58 136 -97 103z"/>
<path d="M0 818 l0 -64 69 -17 c107 -28 148 -87 105 -153 -21 -31 -88 -70
-136 -78 l-38 -7 0 -60 0 -59 43 6 c65 10 125 43 181 98 56 56 76 104 76 184
0 99 -94 171 -267 207 l-33 7 0 -64z"/>
</g>
</svg>
